<?xml version="1.0" standalone="no"?>
<!DOCTYPE svg PUBLIC "-//W3C//DTD SVG 20010904//EN"
 "http://www.w3.org/TR/2001/REC-SVG-20010904/DTD/svg10.dtd">
<svg version="1.0" xmlns="http://www.w3.org/2000/svg"
 width="555.000000pt" height="555.000000pt" viewBox="0 0 555.000000 555.000000"
 preserveAspectRatio="xMidYMid meet">

<g transform="translate(0.000000,555.000000) scale(0.100000,-0.100000)"
fill="#000000" stroke="none">
<path d="M2744 5150 c-18 -6 -54 -25 -80 -42 -137 -92 -148 -305 -22 -413 57
-48 125 -69 207 -63 76 6 111 21 163 73 33 34 77 119 67 129 -2 3 -32 6 -65 7
-60 2 -62 2 -101 -39 -34 -36 -46 -42 -81 -42 -58 0 -91 18 -113 62 -48 94 10
208 106 208 38 0 92 -33 107 -65 10 -21 18 -25 57 -25 25 0 56 -3 69 -6 18 -5
22 -2 22 15 0 61 -63 146 -135 183 -45 24 -152 33 -201 18z"/>
<path d="M2178 5096 c-55 -20 -86 -43 -108 -79 -38 -62 -17 -152 45 -193 15
-10 62 -20 117 -26 51 -5 98 -14 105 -20 25 -20 15 -48 -24 -64 -34 -15 -38
-14 -65 6 -28 21 -34 21 -94 10 -38 -7 -64 -17 -64 -25 0 -27 48 -81 90 -103
38 -20 55 -23 107 -18 128 11 205 74 206 169 1 107 -50 149 -198 161 -100 9
-124 25 -89 60 20 21 58 20 79 0 14 -14 23 -15 80 -3 50 10 65 17 65 30 0 23
-45 76 -81 94 -35 18 -121 19 -171 1z"/>
<path d="M3221 4844 c-95 -113 -169 -209 -164 -213 4 -4 35 -15 68 -25 l59
-18 28 33 28 33 85 -28 85 -27 0 -44 0 -44 71 -21 c39 -12 73 -20 75 -18 7 8
-29 523 -38 534 -5 7 -28 17 -52 23 -24 6 -50 13 -58 16 -9 4 -71 -62 -187
-201z m189 -48 l0 -84 -47 17 c-27 9 -50 17 -51 18 -4 1 90 132 96 133 1 0 2
-38 2 -84z"/>
<path d="M3716 4659 c-76 -115 -137 -211 -135 -213 2 -2 28 -20 56 -39 l53
-36 46 64 c41 58 47 63 65 52 19 -11 20 -19 14 -102 l-7 -91 60 -37 c33 -20
62 -37 65 -37 3 0 9 45 12 100 7 92 9 100 28 100 40 0 102 39 130 82 42 65 35
151 -16 207 -18 19 -220 161 -229 161 -2 0 -65 -95 -142 -211z m237 0 c46 -38
48 -75 5 -98 -28 -16 -44 -12 -92 24 -18 14 -17 16 10 59 16 25 31 46 34 46 3
0 22 -14 43 -31z"/>
<path d="M1550 4837 c-34 -12 -240 -135 -240 -143 0 -2 21 -36 48 -77 26 -40
85 -135 132 -210 47 -75 88 -136 91 -137 11 0 201 120 227 144 36 32 52 70 52
122 0 41 -5 51 -39 85 -29 29 -47 39 -71 39 -32 0 -32 1 -27 36 7 44 -16 107
-47 128 -34 22 -87 27 -126 13z m54 -138 c19 -28 13 -42 -34 -73 l-39 -26 -20
29 c-28 39 -27 48 12 71 41 26 62 25 81 -1z m104 -151 c23 -23 13 -56 -25 -83
-48 -32 -54 -31 -75 6 -24 42 -23 46 20 68 43 23 63 26 80 9z"/>
<path d="M1983 4626 c-28 -12 -54 -24 -58 -27 -3 -3 5 -29 17 -58 18 -44 24
-52 43 -47 37 9 95 36 95 44 0 10 -35 100 -40 105 -3 2 -28 -6 -57 -17z"/>
<path d="M4166 4380 c-87 -82 -170 -159 -183 -172 l-24 -24 44 -48 c50 -55 56
-54 117 8 l34 36 51 -49 c81 -81 170 -92 252 -32 22 16 47 45 56 64 21 44 22
119 1 158 -14 29 -169 202 -183 206 -3 1 -78 -65 -165 -147z m210 -80 c25 -38
26 -41 10 -65 -33 -50 -70 -50 -116 0 l-25 27 44 39 c24 21 47 39 52 39 5 0
21 -18 35 -40z"/>
<path d="M997 4412 l-48 -49 110 -234 c61 -128 111 -235 111 -237 0 -2 -15 6
-34 17 -18 12 -38 21 -44 21 -6 0 -29 -34 -52 -75 l-42 -76 -56 33 c-32 17
-106 60 -166 95 -60 35 -113 60 -116 56 -16 -18 -64 -112 -60 -117 3 -2 101
-59 219 -126 195 -111 216 -121 227 -105 7 10 45 74 85 144 40 69 90 146 111
170 42 48 44 57 23 85 -8 11 -15 26 -15 33 0 18 110 133 127 133 8 0 28 -7 45
-16 l30 -16 48 54 c27 29 45 56 42 60 -5 5 -489 198 -496 198 -1 0 -23 -22
-49 -48z m251 -169 c6 -3 12 -8 12 -12 0 -10 -69 -76 -74 -70 -6 6 -66 128
-66 134 0 2 26 -7 58 -21 31 -14 63 -28 70 -31z"/>
<path d="M4666 4095 c-10 -8 -107 -64 -217 -126 -109 -62 -197 -115 -195 -118
9 -17 159 -276 162 -279 3 -5 92 47 98 57 3 4 -15 41 -39 82 -25 41 -45 77
-45 81 0 8 60 42 64 36 2 -2 20 -32 41 -68 21 -36 39 -66 40 -68 4 -5 95 50
95 58 0 5 -16 36 -35 69 -19 32 -35 64 -35 69 0 10 58 38 64 31 2 -2 22 -37
46 -76 23 -40 43 -73 45 -73 11 0 95 54 95 61 0 11 -149 267 -159 273 -3 2
-14 -2 -25 -9z"/>
<path d="M1992 3675 c-47 -40 -58 -77 -38 -130 18 -45 75 -105 101 -105 19 0
19 1 -10 56 -29 54 -31 81 -9 112 28 40 71 28 187 -51 l59 -40 -56 -18 c-32
-9 -93 -41 -136 -69 l-79 -52 -63 21 c-44 15 -87 40 -137 81 -44 36 -87 62
-108 66 -75 14 -148 -18 -179 -79 -22 -42 -33 -201 -27 -378 5 -118 2 -165
-12 -239 -17 -86 -17 -94 -2 -105 15 -11 15 -15 -3 -51 -15 -29 -20 -58 -20
-121 0 -45 3 -84 8 -86 4 -3 7 37 7 89 0 87 2 95 26 119 l25 26 122 -61 c108
-54 133 -72 233 -166 180 -171 337 -261 553 -319 50 -13 136 -38 191 -55 98
-30 255 -50 290 -36 32 12 -3 33 -66 40 -225 23 -444 79 -582 148 -82 41 -196
127 -303 228 -50 48 -111 100 -135 117 -76 52 -214 114 -273 122 -31 4 -59 11
-63 15 -4 3 -1 39 5 79 21 118 25 217 14 307 -6 47 -8 103 -4 125 l8 40 31
-66 c66 -141 161 -162 287 -64 32 25 68 45 80 45 13 0 46 -25 86 -66 36 -36
86 -81 112 -100 26 -19 50 -43 53 -53 11 -37 190 -222 240 -249 27 -15 56 -39
64 -53 14 -24 12 -28 -18 -67 -59 -72 -41 -141 47 -186 132 -67 318 -98 589
-97 215 0 253 7 314 59 38 32 41 33 58 18 11 -10 29 -36 41 -60 45 -83 11
-136 -126 -201 -48 -23 -70 -45 -45 -45 28 0 144 44 182 69 24 17 45 28 47 26
3 -2 8 -25 13 -51 18 -93 -18 -157 -112 -205 -127 -64 -408 -100 -608 -79
-288 31 -604 141 -826 289 -102 69 -151 95 -245 134 -47 20 -124 54 -172 76
-104 48 -228 75 -228 51 0 -5 15 -10 33 -10 50 0 121 -23 247 -79 63 -29 137
-62 165 -74 27 -12 88 -46 135 -76 250 -158 457 -245 721 -303 146 -32 465
-32 611 -1 201 44 298 116 298 223 0 48 -18 128 -31 136 -5 3 -20 -8 -34 -24
-23 -28 -102 -68 -112 -58 -3 2 12 13 34 24 74 38 103 98 78 159 -15 34 -14
35 8 30 165 -41 431 -23 487 33 27 27 43 95 35 148 l-7 44 -51 -5 -52 -6 43
15 c48 18 57 39 49 110 -7 67 -47 111 -150 163 -48 25 -90 41 -94 37 -5 -5 3
-16 17 -25 14 -9 43 -33 65 -53 l40 -37 -28 -10 c-82 -32 -348 -18 -585 30
-96 19 -140 37 -173 70 -25 25 -24 53 5 96 14 19 22 42 19 49 -7 19 4 18 35
-5 41 -28 72 -36 72 -17 0 9 -4 16 -10 16 -5 0 -10 7 -10 15 0 8 5 15 10 15 6
0 10 -7 10 -15 0 -19 11 -19 36 0 10 8 29 15 40 15 12 0 45 8 73 17 l52 16 26
-25 c21 -22 23 -29 14 -47 -7 -11 -18 -21 -26 -21 -8 0 -15 -4 -15 -8 0 -5 38
-8 85 -8 47 1 85 4 85 8 0 10 -97 82 -140 103 -19 10 -48 27 -65 39 -58 41
-82 54 -142 77 -12 4 -29 23 -36 42 -11 26 -24 36 -56 45 -22 7 -41 16 -41 21
0 4 -17 28 -38 52 -21 24 -41 52 -45 62 -3 9 -15 17 -25 17 -21 0 -67 45 -76
75 -3 12 -25 28 -53 39 -27 10 -64 31 -83 46 -19 15 -45 30 -57 34 -26 8 -63
-9 -63 -29 0 -12 -19 -15 -105 -15 l-105 0 -42 -45 c-27 -28 -51 -45 -66 -45
-37 0 -100 37 -167 100 -34 32 -76 65 -93 74 -47 24 -105 21 -140 -9z m133 -5
c22 -11 61 -41 85 -67 25 -26 34 -39 20 -30 -79 53 -114 70 -152 71 -29 0 -44
-5 -54 -19 -18 -24 -17 -93 1 -125 22 -38 18 -46 -11 -19 -31 29 -54 71 -54
99 0 51 54 109 104 110 11 0 38 -9 61 -20z m670 -54 c19 -13 17 -15 -18 -21
-42 -8 -52 -3 -44 20 8 19 37 19 62 1z m-256 -55 c-31 -10 -63 -22 -70 -26 -8
-5 -6 1 5 13 17 20 44 28 96 30 14 0 0 -8 -31 -17z m310 10 c17 -11 15 -11
-104 -31 -38 -6 -81 -14 -94 -17 l-25 -6 23 31 c22 31 24 32 104 32 45 0 89
-4 96 -9z m-209 -10 c0 -5 -7 -14 -15 -21 -18 -15 -20 -40 -2 -40 6 0 36 7 65
14 29 8 83 18 120 22 l66 7 -22 -34 c-19 -30 -27 -34 -69 -37 -26 -1 -58 -4
-69 -7 -44 -10 -36 -65 9 -65 11 0 40 11 63 25 31 18 51 24 69 19 l26 -6 -20
-22 c-30 -32 -27 -50 7 -41 44 12 145 22 164 17 14 -3 16 -11 11 -31 -11 -45
-20 -66 -37 -80 -15 -13 -22 -41 -10 -41 3 0 19 11 36 25 26 22 88 36 88 20 0
-22 -33 -76 -54 -90 -38 -25 -32 -36 12 -21 49 17 142 29 142 18 0 -5 -11 -15
-24 -22 -14 -7 -27 -19 -30 -26 -10 -25 13 -24 40 1 29 27 73 33 118 15 53
-20 17 -73 -57 -84 -34 -5 -47 -12 -49 -26 -3 -17 -9 -15 -63 19 -33 21 -88
48 -123 61 -46 17 -86 44 -155 102 -103 89 -118 100 -269 188 -154 90 -157 96
-52 130 67 21 84 24 84 11z m296 -42 c11 -19 -40 -61 -69 -57 l-25 3 25 42
c21 36 28 41 43 33 11 -6 22 -15 26 -21z m-1349 -14 c-10 -7 -25 -22 -33 -32
-14 -17 -14 -16 -4 4 5 12 18 27 28 32 25 15 30 13 9 -4z m136 1 c36 -16 123
-92 92 -80 -37 14 -116 16 -146 4 -18 -8 -38 -28 -50 -51 -55 -108 19 -207
147 -197 60 5 60 -7 0 -36 -82 -39 -154 -7 -200 89 -39 79 -44 139 -18 191 42
82 105 111 175 80z m623 -38 c32 -28 37 -30 46 -15 16 29 55 21 72 -15 16 -31
16 -32 -15 -64 -24 -25 -46 -36 -88 -44 -77 -14 -262 -51 -283 -57 -10 -2 -18
-9 -18 -15 0 -12 133 -4 205 12 32 6 36 6 21 -3 -10 -7 -38 -24 -63 -40 -71
-44 -48 -61 56 -43 l45 8 -17 -25 c-39 -60 -16 -87 72 -87 l65 0 -69 -33 c-39
-19 -76 -41 -84 -50 -27 -34 30 -18 103 27 65 40 102 55 164 69 35 8 26 -10
-20 -39 -60 -37 -138 -115 -138 -137 0 -17 5 -19 40 -14 39 5 39 5 24 -18 -24
-36 -1 -46 66 -29 92 24 107 18 68 -23 -12 -13 -18 -26 -15 -30 4 -3 46 3 95
15 108 27 202 36 222 23 13 -9 12 -13 -5 -30 -29 -28 -188 -111 -213 -111 -12
0 -31 -9 -42 -20 -16 -16 -18 -25 -10 -45 5 -14 8 -25 5 -25 -2 0 -28 21 -56
46 -29 26 -75 61 -103 79 -47 30 -293 283 -375 385 -19 23 -57 57 -85 75 -28
18 -60 42 -70 54 -26 28 -45 26 -80 -9 -34 -35 -95 -54 -142 -45 -39 7 -92 48
-104 80 -14 36 6 97 41 129 28 24 38 28 78 24 25 -3 83 -21 129 -42 98 -44
152 -56 152 -33 0 20 165 124 216 136 62 14 71 13 110 -21z m222 -63 c24 -19
60 -39 80 -44 23 -7 69 -39 122 -86 47 -42 105 -88 130 -102 25 -15 84 -50
133 -79 48 -29 92 -54 98 -56 7 -2 1 -22 -14 -50 -32 -60 -26 -91 24 -128 73
-52 319 -94 564 -94 220 -1 254 15 183 85 l-33 31 44 -23 c67 -36 108 -79 121
-128 18 -69 12 -83 -52 -114 -32 -15 -58 -33 -58 -39 0 -10 13 -9 105 4 18 3
20 -3 20 -64 0 -56 -4 -70 -23 -91 -37 -40 -101 -52 -267 -52 -165 0 -212 9
-268 53 -146 111 -204 148 -215 137 -13 -12 16 -41 79 -78 35 -20 65 -41 67
-46 5 -16 -50 -51 -106 -67 -46 -14 -91 -16 -261 -11 -269 7 -436 38 -548 103
-74 43 -82 88 -29 157 25 33 33 52 29 69 -5 18 7 11 61 -36 l68 -59 80 -4 c60
-4 92 0 125 12 40 16 45 16 56 1 10 -13 20 -14 55 -5 24 5 61 18 82 29 22 11
58 20 80 20 44 0 53 22 12 28 -15 2 -22 10 -22 27 0 31 -70 113 -179 210 -49
44 -90 88 -91 98 0 10 -8 17 -19 17 -21 0 -61 44 -61 66 0 7 -9 16 -21 19 -11
4 -27 22 -35 40 -7 18 -20 35 -29 38 -8 4 -15 18 -15 32 0 14 -5 25 -12 25
-21 0 -58 43 -58 67 0 16 -8 27 -25 33 -14 5 -25 15 -25 22 0 7 -18 39 -41 71
l-40 59 43 -31 c24 -18 62 -47 86 -66z m397 47 c-46 -4 -53 2 -30 28 l18 20
25 -22 24 -23 -37 -3z m-180 -2 c7 -12 -53 -43 -71 -36 -21 8 -17 25 9 36 30
12 55 12 62 0z m248 -30 c4 -4 -23 -10 -60 -13 -37 -4 -79 -9 -93 -13 l-25 -7
22 25 c21 22 29 24 85 20 35 -2 67 -8 71 -12z m-407 -31 c4 -8 1 -8 -14 0 -12
6 -24 16 -28 22 -4 8 -1 8 14 0 12 -6 24 -16 28 -22z m-116 -35 c0 -16 -16
-19 -25 -4 -8 13 4 32 16 25 5 -4 9 -13 9 -21z m601 -19 c23 -27 15 -35 -30
-35 l-38 0 10 40 c12 42 20 41 58 -5z m-641 -19 c-47 -13 -65 -11 -40 4 8 6
31 9 50 9 l35 -1 -45 -12z m-112 -12 c-6 -5 -176 -35 -193 -33 -5 1 22 9 60
19 68 17 144 26 133 14z m207 -20 c9 -14 15 -27 13 -28 -7 -5 -212 -36 -215
-32 -12 11 51 62 89 72 71 19 94 17 113 -12z m290 -55 l20 -23 -30 21 c-16 11
-39 31 -50 44 l-20 23 30 -21 c17 -11 39 -31 50 -44z m345 28 c43 -33 37 -44
-32 -50 -35 -3 -63 -5 -64 -4 -1 1 8 21 18 45 21 48 29 48 78 9z m-846 -15
c-15 -26 -27 -32 -81 -42 -35 -7 -66 -10 -69 -8 -2 3 8 13 23 23 31 21 136 65
141 60 2 -2 -4 -17 -14 -33z m866 28 c0 -5 -2 -10 -4 -10 -3 0 -8 5 -11 10 -3
6 -1 10 4 10 6 0 11 -4 11 -10z m-1300 -19 c0 -12 -20 -25 -27 -18 -7 7 6 27
18 27 5 0 9 -4 9 -9z m688 -31 c3 -17 -107 -111 -141 -122 -45 -13 -135 -9
-151 8 -14 13 -14 19 -2 43 23 44 42 54 144 72 112 20 146 20 150 -1z m11 -69
c-12 -17 -31 -33 -41 -36 -62 -17 -62 -15 -8 34 58 53 88 54 49 2z m656 39 c3
-5 -3 -10 -15 -10 -12 0 -18 5 -15 10 3 6 10 10 15 10 5 0 12 -4 15 -10z
m-1192 -69 c70 -77 29 -61 -48 19 -44 46 -46 50 -19 37 17 -9 47 -34 67 -56z
m593 1 c-3 -2 -14 2 -25 10 -12 8 -18 18 -14 21 3 4 15 0 25 -10 10 -9 16 -18
14 -21z m720 -8 c-3 -7 0 -15 7 -18 7 -2 0 -5 -15 -5 -21 -1 -28 4 -28 17 0
10 3 21 6 25 10 10 35 -5 30 -19z m-711 -13 c-12 -11 -95 -25 -95 -17 0 10 43
25 75 25 17 1 25 -3 20 -8z m419 -17 c26 -15 45 -28 42 -31 -4 -4 -64 25 -96
46 -31 22 9 10 54 -15z m-364 -29 c13 -14 22 -27 19 -29 -2 -2 -35 -14 -74
-26 -38 -13 -90 -32 -114 -42 -24 -10 -46 -16 -48 -14 -3 3 8 28 24 57 25 47
33 55 73 65 70 19 94 17 120 -11z m834 -33 l29 -22 -42 0 c-39 0 -41 1 -41 31
0 24 3 29 13 22 6 -5 25 -19 41 -31z m-1058 -41 c-18 -35 -34 -52 -57 -60 -40
-14 -39 -14 -39 3 0 15 96 106 111 106 5 0 -2 -22 -15 -49z m264 26 c0 -1 -27
-27 -61 -56 -57 -51 -67 -55 -152 -72 -51 -10 -93 -19 -95 -19 -1 0 4 12 11
27 12 21 39 36 138 74 108 41 159 56 159 46z m116 -100 c110 -99 174 -172 174
-196 0 -15 -10 -19 -47 -23 -27 -3 -81 -19 -121 -37 -136 -60 -232 -66 -232
-16 0 31 25 47 120 75 41 12 96 33 122 47 74 40 74 61 0 108 -44 28 -54 30
-139 30 -50 -1 -89 3 -86 8 7 12 104 87 111 87 4 0 48 -37 98 -83z m-513 -127
c-5 -6 -159 158 -174 185 -5 11 32 -25 84 -80 52 -55 93 -102 90 -105z m492
90 c4 -6 -12 -10 -42 -10 -26 0 -85 -9 -131 -20 -46 -11 -86 -20 -90 -20 -3 0
7 14 23 30 28 30 30 30 131 30 58 0 106 -4 109 -10z m79 -49 c6 -9 -28 -43
-62 -60 -30 -16 -102 -41 -102 -36 0 2 29 19 64 39 35 20 66 43 70 51 6 16 22
20 30 6z m-1261 -146 c102 -48 170 -97 282 -205 59 -57 174 -147 251 -197 43
-28 -34 6 -87 38 -91 55 -154 105 -262 206 -81 76 -127 110 -203 150 -121 64
-111 69 19 8z m1342 -4 c-10 -9 -85 -23 -85 -16 0 5 59 23 80 24 8 1 10 -2 5
-8z m-375 -23 c0 -19 -2 -20 -10 -8 -13 19 -13 30 0 30 6 0 10 -10 10 -22z
m330 -17 c-8 -5 -31 -11 -50 -14 -35 -6 -35 -6 -10 8 14 8 36 14 50 14 19 0
21 -2 10 -8z m-227 -511 c71 -10 132 -21 135 -24 15 -16 -169 6 -238 28 -61
19 -46 19 103 -4z"/>
<path d="M5325 2940 c-9 -15 4 -30 26 -30 12 0 19 7 19 20 0 21 -33 29 -45 10z"/>
<path d="M4547 2893 c-2 -5 -5 -36 -6 -70 -1 -61 -1 -63 24 -63 23 0 25 4 25
44 0 46 16 69 31 45 5 -8 9 -31 9 -51 0 -31 4 -38 19 -38 17 0 20 8 23 47 2
36 7 49 21 51 14 3 17 -4 17 -47 0 -44 3 -51 20 -51 18 0 20 7 20 60 0 50 -3
61 -21 71 -16 8 -28 8 -46 0 -19 -9 -29 -9 -39 0 -11 9 -21 9 -39 1 -15 -7
-26 -8 -30 -2 -7 12 -22 13 -28 3z"/>
<path d="M4786 2891 c-1 -3 -2 -33 -2 -66 1 -54 3 -60 24 -63 20 -3 22 1 22
42 0 46 16 69 31 45 5 -8 8 -30 7 -49 -3 -30 0 -35 20 -38 20 -3 22 0 22 47 0
37 4 51 14 51 17 0 26 -22 26 -66 0 -27 4 -34 20 -34 18 0 20 7 20 54 0 63
-20 92 -54 81 -12 -4 -25 -6 -31 -6 -62 6 -117 6 -119 2z"/>
<path d="M5098 2880 c-15 -24 -28 -26 -28 -5 0 9 -9 15 -25 15 -28 0 -32 -12
-10 -30 8 -7 15 -20 15 -30 0 -10 -7 -23 -15 -30 -8 -7 -15 -19 -15 -26 0 -22
38 -16 51 8 l12 23 10 -23 c9 -19 18 -22 63 -22 44 0 55 4 65 21 l11 21 14
-21 c9 -12 24 -21 35 -21 24 0 24 2 0 41 -20 32 -20 33 -1 57 32 40 6 58 -30
22 -19 -19 -20 -19 -30 0 -11 21 -35 26 -45 10 -3 -5 1 -21 10 -34 16 -23 15
-27 -1 -56 -10 -16 -21 -30 -24 -30 -4 0 -16 14 -29 30 l-22 31 21 26 c16 20
18 28 8 35 -20 12 -27 10 -40 -12z"/>
<path d="M5325 2825 c0 -61 1 -65 23 -65 21 0 22 4 22 65 0 61 -1 65 -23 65
-21 0 -22 -4 -22 -65z"/>
<path d="M914 2815 c6 -23 4 -24 -29 -23 -72 3 -104 -78 -49 -121 28 -22 59
-27 68 -12 3 4 17 6 31 3 l25 -4 0 91 0 91 -26 0 c-23 0 -25 -3 -20 -25z m0
-78 c15 -24 -17 -56 -41 -41 -24 15 -26 29 -7 48 19 19 33 17 48 -7z"/>
<path d="M712 2797 c-25 -24 -34 -29 -44 -19 -7 7 -29 12 -50 12 -32 0 -41 -5
-50 -26 -11 -22 -10 -28 7 -40 10 -8 27 -14 36 -14 10 0 21 -5 25 -11 5 -8 -6
-9 -36 -4 -33 6 -41 4 -38 -6 3 -8 17 -21 31 -29 24 -13 30 -13 55 0 40 23 37
62 -5 75 -51 17 -48 22 12 22 l55 0 0 -36 c0 -44 14 -61 52 -61 30 0 39 23 14
37 -7 4 -17 18 -21 31 -5 19 -3 25 14 29 24 6 29 33 6 33 -8 0 -15 6 -15 14 0
27 -16 25 -48 -7z"/>
<path d="M439 2788 c-36 -12 -54 -53 -39 -89 27 -64 115 -57 132 9 16 61 -31
101 -93 80z m51 -38 c0 -5 -12 -10 -26 -10 -14 0 -23 4 -19 10 3 6 15 10 26
10 10 0 19 -4 19 -10z m16 -45 c-22 -17 -52 -20 -61 -6 -3 5 7 12 22 14 55 8
59 7 39 -8z"/>
<path d="M4335 1958 c-38 -72 -71 -134 -73 -138 -3 -8 428 -240 444 -240 8 0
154 270 154 284 0 9 -92 56 -101 51 -4 -3 -25 -38 -45 -76 -21 -39 -43 -73
-50 -76 -7 -2 -24 3 -38 13 l-26 17 39 71 39 71 -48 27 c-55 31 -50 33 -99
-54 -18 -32 -36 -58 -41 -58 -4 0 -19 6 -34 14 l-26 13 40 76 c22 41 40 80 40
85 0 11 -74 52 -93 52 -7 0 -43 -59 -82 -132z"/>
<path d="M989 1951 c-102 -32 -132 -112 -89 -237 26 -74 23 -108 -8 -112 -46
-7 -79 55 -53 97 8 12 -13 53 -66 130 -6 9 -56 -46 -69 -76 -20 -47 -17 -91
10 -149 29 -63 77 -118 116 -134 41 -17 130 -8 162 16 63 46 71 99 36 226 -19
71 -20 80 -6 94 33 33 86 -34 61 -75 -7 -12 -1 -30 26 -73 41 -63 53 -64 90
-4 77 124 -75 338 -210 297z"/>
<path d="M4223 1700 c-17 -4 -45 -16 -61 -26 -30 -19 -198 -202 -191 -208 22
-16 305 -259 337 -290 l44 -41 44 48 c24 27 44 53 44 57 0 5 -25 30 -56 56
-55 47 -55 47 -35 67 19 20 20 20 101 -1 l81 -20 47 50 c26 27 47 55 47 61 0
5 -43 20 -95 31 -93 21 -95 22 -98 51 -5 54 -12 73 -38 105 -44 52 -110 75
-171 60z m57 -150 c28 -28 25 -54 -11 -95 l-31 -35 -38 32 c-21 18 -39 38 -39
44 -1 16 66 74 84 74 8 0 24 -9 35 -20z"/>
<path d="M1283 1626 c-4 -8 -81 -89 -171 -180 l-163 -165 48 -46 c26 -24 51
-45 55 -45 4 0 37 30 72 68 l65 67 56 -55 55 -54 -66 -67 c-37 -37 -65 -71
-63 -76 2 -5 25 -28 50 -51 l47 -42 176 182 175 183 -50 50 -50 50 -59 -62
c-33 -35 -65 -63 -73 -63 -7 0 -34 21 -59 48 l-47 47 59 62 c33 35 60 66 60
70 0 13 -84 93 -97 93 -6 0 -16 -6 -20 -14z"/>
<path d="M3742 1302 c-42 -28 -53 -41 -49 -56 2 -12 23 -102 46 -201 23 -99
47 -205 53 -235 6 -30 14 -59 18 -63 4 -5 33 8 65 29 59 39 64 52 41 106 -6
13 10 28 69 68 l77 52 36 -26 c33 -23 38 -24 57 -11 11 8 37 25 57 37 21 13
38 28 38 33 0 9 -439 306 -450 304 -3 0 -29 -17 -58 -37z m164 -181 c30 -22
56 -42 57 -45 3 -7 -65 -56 -78 -56 -8 0 -45 108 -45 134 0 12 12 5 66 -33z"/>
<path d="M1651 1226 c-57 -20 -108 -72 -142 -143 -28 -58 -31 -73 -26 -125 15
-168 205 -295 372 -248 63 18 136 85 165 152 43 100 27 199 -44 276 -59 65
-143 102 -226 101 -36 0 -80 -6 -99 -13z m186 -143 c63 -40 79 -96 49 -167
-40 -97 -186 -106 -240 -16 -36 62 -9 158 55 192 47 25 88 23 136 -9z"/>
<path d="M3324 1109 c-55 -16 -127 -72 -159 -123 -27 -44 -30 -58 -30 -130 0
-90 18 -135 75 -193 56 -57 110 -76 198 -71 46 3 91 12 112 22 43 22 97 72
116 107 20 40 36 119 29 149 l-6 27 -57 -21 c-76 -28 -82 -33 -82 -65 0 -38
-47 -81 -97 -88 -133 -18 -205 170 -94 244 44 30 89 29 135 -2 l38 -25 59 21
c32 12 59 27 59 34 0 24 -81 93 -127 109 -51 17 -120 19 -169 5z"/>
<path d="M2156 1058 c-12 -39 -108 -479 -105 -482 7 -5 294 -66 310 -66 11 0
18 12 22 38 3 20 8 45 12 54 8 20 11 19 -103 44 l-83 17 7 31 c3 17 9 34 13
37 3 4 40 -1 81 -11 41 -10 78 -15 82 -12 4 4 10 30 13 57 l7 51 -73 15 c-72
14 -74 15 -77 47 -2 20 2 34 10 37 8 3 51 -3 97 -14 59 -13 83 -16 86 -7 9 31
24 101 21 103 -2 2 -306 73 -313 73 -2 0 -5 -6 -7 -12z"/>
<path d="M2625 993 c-68 -17 -109 -81 -103 -160 6 -74 33 -98 150 -137 76 -25
94 -35 96 -53 2 -14 -5 -27 -22 -39 -22 -14 -31 -14 -55 -4 -16 6 -31 20 -34
31 -4 16 -15 19 -76 19 -70 0 -71 -1 -71 -26 0 -101 130 -172 265 -144 99 21
156 97 140 189 -11 63 -42 89 -162 130 -79 27 -107 51 -86 72 21 21 75 15 91
-9 12 -19 24 -22 78 -22 64 0 64 0 64 29 0 38 -38 92 -80 113 -34 17 -147 23
-195 11z"/>
</g>
</svg>
